<svg width="61" height="60" viewBox="0 0 61 60" fill="none" xmlns="http://www.w3.org/2000/svg">
<rect x="1.5" y="1" width="58" height="58" rx="29" fill="#E4EEF0" stroke="#E4EEF0" stroke-width="2"/>
<path fill-rule="evenodd" clip-rule="evenodd" d="M34.6502 23.7416C37.1887 26.28 37.1887 30.3956 34.6502 32.934C32.1118 35.4724 27.9963 35.4724 25.4579 32.934C22.9194 30.3956 22.9194 26.28 25.4579 23.7416C27.9963 21.2032 32.1118 21.2032 34.6502 23.7416ZM38.7392 34.242C41.5241 30.1551 41.1039 24.5385 37.4787 20.9132C33.3782 16.8127 26.7299 16.8127 22.6294 20.9132C18.5289 25.0137 18.5289 31.662 22.6294 35.7625C26.2476 39.3806 31.8493 39.8062 35.9341 37.0393C35.9899 37.1135 36.0515 37.1846 36.119 37.252L40.7152 41.8482C41.4963 42.6293 42.7626 42.6293 43.5437 41.8482C44.3247 41.0672 44.3247 39.8009 43.5437 39.0198L38.9475 34.4236C38.8813 34.3575 38.8117 34.2969 38.7392 34.242Z" fill="#94B1DD"/>
</svg>
